<?xml version="1.0" encoding="UTF-8" standalone="no"?>
<svg
   xmlns:dc="http://purl.org/dc/elements/1.1/"
   xmlns:cc="http://creativecommons.org/ns#"
   xmlns:rdf="http://www.w3.org/1999/02/22-rdf-syntax-ns#"
   xmlns:svg="http://www.w3.org/2000/svg"
   xmlns="http://www.w3.org/2000/svg"
   xmlns:sodipodi="http://sodipodi.sourceforge.net/DTD/sodipodi-0.dtd"
   xmlns:inkscape="http://www.inkscape.org/namespaces/inkscape"
   inkscape:version="1.0 (6e3e5246a0, 2020-05-07)"
   sodipodi:docname="ladder.svg"
   version="1.1"
   viewBox="0 0 73.00004 344.38825"
   height="344.38824"
   width="73.000038"
   data-name="Layer 1"
   id="f241e7b9-92bc-4a39-8e1f-dd6f59c49ece">
  <metadata
     id="metadata2175">
    <rdf:RDF>
      <cc:Work
         rdf:about="">
        <dc:format>image/svg+xml</dc:format>
        <dc:type
           rdf:resource="http://purl.org/dc/dcmitype/StillImage" />
        <dc:title></dc:title>
      </cc:Work>
    </rdf:RDF>
  </metadata>
  <defs
     id="defs2173" />
  <sodipodi:namedview
     inkscape:current-layer="f241e7b9-92bc-4a39-8e1f-dd6f59c49ece"
     inkscape:window-maximized="1"
     inkscape:window-y="36"
     inkscape:window-x="0"
     inkscape:cy="164.75129"
     inkscape:cx="5.2623599"
     inkscape:zoom="1.3871417"
     fit-margin-bottom="0"
     fit-margin-right="0"
     fit-margin-left="0"
     fit-margin-top="0"
     showgrid="false"
     id="namedview2171"
     inkscape:window-height="975"
     inkscape:window-width="1920"
     inkscape:pageshadow="2"
     inkscape:pageopacity="0"
     guidetolerance="10"
     gridtolerance="10"
     objecttolerance="10"
     borderopacity="1"
     bordercolor="#666666"
     pagecolor="#ffffff" />
  <path
     id="path2051"
     fill="#3f3d56"
     d="m 70.42357,344.38824 h 2.57647 L 67.84704,0 h -2.57648 l 0.10279,6.8706 H 7.62669 L 7.72947,0 H 5.153 L 0,344.38824 h 2.57648 l 0.33411,-22.3294 h 67.17883 z m -3.71375,-248.2 H 6.29027 L 6.9199,54.1059 h 59.16028 z m 0.0386,2.57648 0.62963,42.08233 H 5.62205 L 6.25169,98.76472 Z m 0.66821,44.65881 0.62964,42.08234 H 4.95386 L 5.5835,143.42353 Z m 0.66821,44.65881 0.62964,42.08234 H 4.28565 l 0.62964,-42.08234 z m 0.66821,44.65882 0.62964,42.08239 H 3.61737 L 4.24701,232.74116 Z M 65.41199,9.44708 66.04163,51.52942 H 6.9585 L 7.58814,9.44708 Z M 2.94922,319.48236 3.57886,277.40002 h 65.84241 l 0.62964,42.08234 z" />
</svg>
