<?xml version="1.0" encoding="UTF-8" standalone="no"?>
<svg
   xmlns:dc="http://purl.org/dc/elements/1.1/"
   xmlns:cc="http://creativecommons.org/ns#"
   xmlns:rdf="http://www.w3.org/1999/02/22-rdf-syntax-ns#"
   xmlns:svg="http://www.w3.org/2000/svg"
   xmlns="http://www.w3.org/2000/svg"
   xmlns:sodipodi="http://sodipodi.sourceforge.net/DTD/sodipodi-0.dtd"
   xmlns:inkscape="http://www.inkscape.org/namespaces/inkscape"
   id="a329d3bf-4b11-4261-9182-40685c3b1c8f"
   data-name="Layer 1"
   width="813.68555"
   height="555.09827"
   viewBox="0 0 813.68555 555.09825"
   version="1.1"
   sodipodi:docname="piggy-bank.svg"
   inkscape:version="1.0 (6e3e5246a0, 2020-05-07)">
  <metadata
     id="metadata9916">
    <rdf:RDF>
      <cc:Work
         rdf:about="">
        <dc:format>image/svg+xml</dc:format>
        <dc:type
           rdf:resource="http://purl.org/dc/dcmitype/StillImage" />
        <dc:title>Savings</dc:title>
      </cc:Work>
    </rdf:RDF>
  </metadata>
  <sodipodi:namedview
     inkscape:document-rotation="0"
     pagecolor="#ffffff"
     bordercolor="#666666"
     borderopacity="1"
     objecttolerance="10"
     gridtolerance="10"
     guidetolerance="10"
     inkscape:pageopacity="0"
     inkscape:pageshadow="2"
     inkscape:window-width="1920"
     inkscape:window-height="975"
     id="namedview9914"
     showgrid="false"
     fit-margin-top="0"
     fit-margin-left="0"
     fit-margin-right="0"
     fit-margin-bottom="0"
     inkscape:zoom="0.95413731"
     inkscape:cx="559"
     inkscape:cy="235.1703"
     inkscape:window-x="0"
     inkscape:window-y="36"
     inkscape:window-maximized="1"
     inkscape:current-layer="a329d3bf-4b11-4261-9182-40685c3b1c8f" />
  <defs
     id="defs9641">
    <linearGradient
       id="b604d933-963c-47a0-8899-51e94ba39cbc"
       x1="882.01746"
       y1="830.63696"
       x2="882.01746"
       y2="326.59686"
       gradientUnits="userSpaceOnUse">
      <stop
         offset="0"
         stop-color="gray"
         stop-opacity="0.25"
         id="stop9634" />
      <stop
         offset="0.53514"
         stop-color="gray"
         stop-opacity="0.12"
         id="stop9636" />
      <stop
         offset="1"
         stop-color="gray"
         stop-opacity="0.1"
         id="stop9638" />
    </linearGradient>
  </defs>
  <title
     id="title9643">Savings</title>
  <ellipse
     cx="542.56305"
     cy="416.81229"
     rx="37.556911"
     ry="39.865372"
     fill="#fbd56f"
     id="ellipse9695" />
  <ellipse
     cx="542.56305"
     cy="416.81229"
     rx="37.556911"
     ry="39.865372"
     opacity="0.1"
     id="ellipse9697" />
  <ellipse
     cx="549.04468"
     cy="417.70016"
     rx="37.556911"
     ry="38.977501"
     fill="#fbd56f"
     id="ellipse9699" />
  <path
     d="m 564.25656,453.02261 -3.90663,-2.17528 c 0,0 -1.82727,7.62536 -1.22995,13.05926 a 2.707,2.707 0 0 0 2.03428,2.33847 c 8.987,2.23181 51.82048,11.74046 81.27524,-1.65234 a 2.70278,2.70278 0 0 0 1.56546,-2.172 c 0.36128,-3.33959 -0.91772,-10.23078 -1.42825,-11.57336 -1.09871,-2.88951 -78.31015,2.17525 -78.31015,2.17525 z"
     fill="#fbd56f"
     id="path9701" />
  <path
     d="m 564.25656,453.02261 -3.90663,-2.17528 c 0,0 -1.82727,7.62536 -1.22995,13.05926 a 2.707,2.707 0 0 0 2.03428,2.33847 c 8.987,2.23181 51.82048,11.74046 81.27524,-1.65234 a 2.70278,2.70278 0 0 0 1.56546,-2.172 c 0.36128,-3.33959 -0.91772,-10.23078 -1.42825,-11.57336 -1.09871,-2.88951 -78.31015,2.17525 -78.31015,2.17525 z"
     opacity="0.1"
     id="path9703" />
  <ellipse
     cx="601.45831"
     cy="450.84732"
     rx="41.108391"
     ry="9.2663803"
     fill="#fbd56f"
     id="ellipse9705" />
  <path
     d="m 579.96224,439.35092 -3.90663,-2.17528 c 0,0 -1.82728,7.62536 -1.23,13.05926 a 2.707,2.707 0 0 0 2.03429,2.33848 c 8.987,2.2318 51.82048,11.74045 81.27523,-1.65235 a 2.70279,2.70279 0 0 0 1.56547,-2.172 c 0.36127,-3.33959 -0.91772,-10.23078 -1.42825,-11.57336 -1.0987,-2.88951 -78.31011,2.17525 -78.31011,2.17525 z"
     fill="#fbd56f"
     id="path9707" />
  <path
     d="m 579.96224,439.35092 -3.90663,-2.17528 c 0,0 -1.82728,7.62536 -1.23,13.05926 a 2.707,2.707 0 0 0 2.03429,2.33848 c 8.987,2.2318 51.82048,11.74045 81.27523,-1.65235 a 2.70279,2.70279 0 0 0 1.56547,-2.172 c 0.36127,-3.33959 -0.91772,-10.23078 -1.42825,-11.57336 -1.0987,-2.88951 -78.31011,2.17525 -78.31011,2.17525 z"
     opacity="0.1"
     id="path9709" />
  <ellipse
     cx="617.164"
     cy="437.17563"
     rx="41.108391"
     ry="9.2663803"
     fill="#fbd56f"
     id="ellipse9711" />
  <path
     d="m 593.84687,421.38213 -3.90663,-2.17528 c 0,0 -1.82728,7.62536 -1.23,13.05926 a 2.707,2.707 0 0 0 2.03429,2.33847 c 8.987,2.23181 51.82047,11.74046 81.27523,-1.65234 a 2.70279,2.70279 0 0 0 1.56547,-2.172 c 0.36127,-3.33958 -0.91773,-10.23077 -1.42825,-11.57335 -1.0987,-2.88952 -78.31011,2.17524 -78.31011,2.17524 z"
     fill="#fbd56f"
     id="path9713" />
  <path
     d="m 593.84687,421.38213 -3.90663,-2.17528 c 0,0 -1.82728,7.62536 -1.23,13.05926 a 2.707,2.707 0 0 0 2.03429,2.33847 c 8.987,2.23181 51.82047,11.74046 81.27523,-1.65234 a 2.70279,2.70279 0 0 0 1.56547,-2.172 c 0.36127,-3.33958 -0.91773,-10.23077 -1.42825,-11.57335 -1.0987,-2.88952 -78.31011,2.17524 -78.31011,2.17524 z"
     opacity="0.1"
     id="path9715" />
  <ellipse
     cx="631.04865"
     cy="419.20688"
     rx="41.108391"
     ry="9.2663803"
     fill="#fbd56f"
     id="ellipse9717" />
  <path
     d="m 578.47062,402.67678 -3.90662,-2.17524 c 0,0 -1.82727,7.62536 -1.23,13.05926 a 2.707,2.707 0 0 0 2.03429,2.33848 c 8.987,2.23181 51.82047,11.74045 81.27523,-1.65234 a 2.70281,2.70281 0 0 0 1.56547,-2.172 c 0.36127,-3.33959 -0.91773,-10.23077 -1.42825,-11.57336 -1.09874,-2.88956 -78.31012,2.1752 -78.31012,2.1752 z"
     fill="#fbd56f"
     id="path9719" />
  <path
     d="m 578.47062,402.67678 -3.90662,-2.17524 c 0,0 -1.82727,7.62536 -1.23,13.05926 a 2.707,2.707 0 0 0 2.03429,2.33848 c 8.987,2.23181 51.82047,11.74045 81.27523,-1.65234 a 2.70281,2.70281 0 0 0 1.56547,-2.172 c 0.36127,-3.33959 -0.91773,-10.23077 -1.42825,-11.57336 -1.09874,-2.88956 -78.31012,2.1752 -78.31012,2.1752 z"
     opacity="0.1"
     id="path9721" />
  <ellipse
     cx="615.67236"
     cy="400.5015"
     rx="41.108391"
     ry="9.2663803"
     fill="#fbd56f"
     id="ellipse9723" />
  <path
     d="m 613.06171,387.66554 -3.90663,-2.17528 c 0,0 -1.82727,7.62536 -1.23,13.05926 a 2.707,2.707 0 0 0 2.03429,2.33847 c 8.987,2.23181 51.82047,11.74046 81.27523,-1.65234 a 2.70276,2.70276 0 0 0 1.56546,-2.172 c 0.36128,-3.33958 -0.91772,-10.23077 -1.42825,-11.57335 -1.09869,-2.88955 -78.3101,2.17524 -78.3101,2.17524 z"
     fill="#fbd56f"
     id="path9725" />
  <path
     d="m 613.06171,387.66554 -3.90663,-2.17528 c 0,0 -1.82727,7.62536 -1.23,13.05926 a 2.707,2.707 0 0 0 2.03429,2.33847 c 8.987,2.23181 51.82047,11.74046 81.27523,-1.65234 a 2.70276,2.70276 0 0 0 1.56546,-2.172 c 0.36128,-3.33958 -0.91772,-10.23077 -1.42825,-11.57335 -1.09869,-2.88955 -78.3101,2.17524 -78.3101,2.17524 z"
     opacity="0.1"
     id="path9727" />
  <ellipse
     cx="650.26349"
     cy="385.49026"
     rx="41.108391"
     ry="9.2663803"
     fill="#fbd56f"
     id="ellipse9729" />
  <path
     d="m 589.69041,377.57598 -3.90663,-2.17528 c 0,0 -1.82728,7.62536 -1.23,13.05926 a 2.707,2.707 0 0 0 2.03429,2.33847 c 8.987,2.23181 51.82047,11.74046 81.27523,-1.65234 a 2.70279,2.70279 0 0 0 1.56547,-2.172 c 0.36127,-3.33958 -0.91773,-10.23077 -1.42825,-11.57335 -1.0987,-2.88952 -78.31011,2.17524 -78.31011,2.17524 z"
     fill="#fbd56f"
     id="path9731" />
  <path
     d="m 589.69041,377.57598 -3.90663,-2.17528 c 0,0 -1.82728,7.62536 -1.23,13.05926 a 2.707,2.707 0 0 0 2.03429,2.33847 c 8.987,2.23181 51.82047,11.74046 81.27523,-1.65234 a 2.70279,2.70279 0 0 0 1.56547,-2.172 c 0.36127,-3.33958 -0.91773,-10.23077 -1.42825,-11.57335 -1.0987,-2.88952 -78.31011,2.17524 -78.31011,2.17524 z"
     opacity="0.1"
     id="path9733" />
  <ellipse
     cx="626.89215"
     cy="375.40073"
     rx="41.108391"
     ry="9.2663803"
     fill="#fbd56f"
     id="ellipse9735" />
  <path
     d="m 605.29411,358.09791 -3.90663,-2.17528 c 0,0 -1.82727,7.62536 -1.23,13.05926 a 2.707,2.707 0 0 0 2.03428,2.33847 c 8.987,2.23181 51.82048,11.74046 81.27524,-1.65234 a 2.70278,2.70278 0 0 0 1.56546,-2.172 c 0.36128,-3.33958 -0.91772,-10.23077 -1.42825,-11.57335 -1.09869,-2.88952 -78.3101,2.17524 -78.3101,2.17524 z"
     fill="#fbd56f"
     id="path9737" />
  <path
     d="m 605.29411,358.09791 -3.90663,-2.17528 c 0,0 -1.82727,7.62536 -1.23,13.05926 a 2.707,2.707 0 0 0 2.03428,2.33847 c 8.987,2.23181 51.82048,11.74046 81.27524,-1.65234 a 2.70278,2.70278 0 0 0 1.56546,-2.172 c 0.36128,-3.33958 -0.91772,-10.23077 -1.42825,-11.57335 -1.09869,-2.88952 -78.3101,2.17524 -78.3101,2.17524 z"
     opacity="0.1"
     id="path9739" />
  <ellipse
     cx="642.49585"
     cy="355.92264"
     rx="41.108391"
     ry="9.2663803"
     fill="#fbd56f"
     id="ellipse9741" />
  <path
     d="m 612.99087,334.97792 -3.90663,-2.17528 c 0,0 -1.82727,7.62536 -1.23,13.05926 a 2.707,2.707 0 0 0 2.03428,2.33847 c 8.987,2.23181 51.82048,11.74046 81.27524,-1.65234 a 2.70278,2.70278 0 0 0 1.56546,-2.172 c 0.36128,-3.33958 -0.91772,-10.23077 -1.42825,-11.57335 -1.09869,-2.88952 -78.3101,2.17524 -78.3101,2.17524 z"
     fill="#fbd56f"
     id="path9743" />
  <path
     d="m 612.99087,334.97792 -3.90663,-2.17528 c 0,0 -1.82727,7.62536 -1.23,13.05926 a 2.707,2.707 0 0 0 2.03428,2.33847 c 8.987,2.23181 51.82048,11.74046 81.27524,-1.65234 a 2.70278,2.70278 0 0 0 1.56546,-2.172 c 0.36128,-3.33958 -0.91772,-10.23077 -1.42825,-11.57335 -1.09869,-2.88952 -78.3101,2.17524 -78.3101,2.17524 z"
     opacity="0.1"
     id="path9745" />
  <ellipse
     cx="650.19263"
     cy="332.80264"
     rx="41.108391"
     ry="9.2663803"
     fill="#fbd56f"
     id="ellipse9747" />
  <path
     d="m 682.38554,458.38478 -3.90663,-2.17528 c 0,0 -1.82727,7.62536 -1.23,13.05926 a 2.707,2.707 0 0 0 2.03429,2.33847 c 8.987,2.23181 51.82047,11.74046 81.27523,-1.65234 a 2.70279,2.70279 0 0 0 1.56547,-2.172 c 0.36127,-3.33958 -0.91773,-10.23077 -1.42825,-11.57335 -1.09865,-2.88952 -78.31011,2.17524 -78.31011,2.17524 z"
     fill="#fbd56f"
     id="path9749" />
  <path
     d="m 682.38554,458.38478 -3.90663,-2.17528 c 0,0 -1.82727,7.62536 -1.23,13.05926 a 2.707,2.707 0 0 0 2.03429,2.33847 c 8.987,2.23181 51.82047,11.74046 81.27523,-1.65234 a 2.70279,2.70279 0 0 0 1.56547,-2.172 c 0.36127,-3.33958 -0.91773,-10.23077 -1.42825,-11.57335 -1.09865,-2.88952 -78.31011,2.17524 -78.31011,2.17524 z"
     opacity="0.1"
     id="path9751" />
  <ellipse
     cx="719.58728"
     cy="456.2095"
     rx="41.108391"
     ry="9.2663803"
     fill="#fbd56f"
     id="ellipse9753" />
  <path
     d="m 696.27017,440.41599 -3.90663,-2.17529 c 0,0 -1.82727,7.62536 -1.22995,13.05926 a 2.707,2.707 0 0 0 2.03429,2.33848 c 8.987,2.23181 51.82047,11.74045 81.27523,-1.65234 a 2.70278,2.70278 0 0 0 1.56546,-2.172 c 0.36128,-3.33959 -0.91772,-10.23077 -1.42825,-11.57336 -1.09874,-2.88952 -78.31015,2.17525 -78.31015,2.17525 z"
     fill="#fbd56f"
     id="path9755" />
  <path
     d="m 696.27017,440.41599 -3.90663,-2.17529 c 0,0 -1.82727,7.62536 -1.22995,13.05926 a 2.707,2.707 0 0 0 2.03429,2.33848 c 8.987,2.23181 51.82047,11.74045 81.27523,-1.65234 a 2.70278,2.70278 0 0 0 1.56546,-2.172 c 0.36128,-3.33959 -0.91772,-10.23077 -1.42825,-11.57336 -1.09874,-2.88952 -78.31015,2.17525 -78.31015,2.17525 z"
     opacity="0.1"
     id="path9757" />
  <ellipse
     cx="733.47192"
     cy="438.24075"
     rx="41.108391"
     ry="9.2663803"
     fill="#fbd56f"
     id="ellipse9759" />
  <path
     d="m 680.89393,421.71064 -3.90663,-2.17528 c 0,0 -1.82727,7.62536 -1.23,13.05926 a 2.707,2.707 0 0 0 2.03428,2.33847 c 8.987,2.23181 51.82048,11.74046 81.27524,-1.65234 a 2.70278,2.70278 0 0 0 1.56546,-2.172 c 0.36128,-3.33958 -0.91772,-10.23077 -1.42825,-11.57335 -1.09869,-2.88952 -78.3101,2.17524 -78.3101,2.17524 z"
     fill="#fbd56f"
     id="path9761" />
  <path
     d="m 680.89393,421.71064 -3.90663,-2.17528 c 0,0 -1.82727,7.62536 -1.23,13.05926 a 2.707,2.707 0 0 0 2.03428,2.33847 c 8.987,2.23181 51.82048,11.74046 81.27524,-1.65234 a 2.70278,2.70278 0 0 0 1.56546,-2.172 c 0.36128,-3.33958 -0.91772,-10.23077 -1.42825,-11.57335 -1.09869,-2.88952 -78.3101,2.17524 -78.3101,2.17524 z"
     opacity="0.1"
     id="path9763" />
  <ellipse
     cx="718.0957"
     cy="419.53537"
     rx="41.108391"
     ry="9.2663803"
     fill="#fbd56f"
     id="ellipse9765" />
  <path
     d="m 715.485,406.69937 -3.90663,-2.17528 c 0,0 -1.82728,7.62536 -1.23,13.05926 a 2.707,2.707 0 0 0 2.03429,2.33848 c 8.987,2.23181 51.82048,11.74045 81.27523,-1.65234 a 2.70281,2.70281 0 0 0 1.56547,-2.172 c 0.36127,-3.33959 -0.91772,-10.23077 -1.42825,-11.57336 -1.09868,-2.88952 -78.31011,2.17524 -78.31011,2.17524 z"
     fill="#fbd56f"
     id="path9767" />
  <path
     d="m 715.485,406.69937 -3.90663,-2.17528 c 0,0 -1.82728,7.62536 -1.23,13.05926 a 2.707,2.707 0 0 0 2.03429,2.33848 c 8.987,2.23181 51.82048,11.74045 81.27523,-1.65234 a 2.70281,2.70281 0 0 0 1.56547,-2.172 c 0.36127,-3.33959 -0.91772,-10.23077 -1.42825,-11.57336 -1.09868,-2.88952 -78.31011,2.17524 -78.31011,2.17524 z"
     opacity="0.1"
     id="path9769" />
  <ellipse
     cx="752.68677"
     cy="404.52414"
     rx="41.108391"
     ry="9.2663803"
     fill="#fbd56f"
     id="ellipse9771" />
  <path
     d="m 692.11371,396.60983 -3.90663,-2.17528 c 0,0 -1.82727,7.62536 -1.23,13.05926 a 2.707,2.707 0 0 0 2.03429,2.33848 c 8.987,2.23181 51.82047,11.74045 81.27523,-1.65234 a 2.70281,2.70281 0 0 0 1.56547,-2.172 c 0.36127,-3.33959 -0.91773,-10.23077 -1.42825,-11.57336 -1.0987,-2.88952 -78.31011,2.17524 -78.31011,2.17524 z"
     fill="#fbd56f"
     id="path9773" />
  <path
     d="m 692.11371,396.60983 -3.90663,-2.17528 c 0,0 -1.82727,7.62536 -1.23,13.05926 a 2.707,2.707 0 0 0 2.03429,2.33848 c 8.987,2.23181 51.82047,11.74045 81.27523,-1.65234 a 2.70281,2.70281 0 0 0 1.56547,-2.172 c 0.36127,-3.33959 -0.91773,-10.23077 -1.42825,-11.57336 -1.0987,-2.88952 -78.31011,2.17524 -78.31011,2.17524 z"
     opacity="0.1"
     id="path9775" />
  <ellipse
     cx="729.31549"
     cy="394.43454"
     rx="41.108391"
     ry="9.2663803"
     fill="#fbd56f"
     id="ellipse9777" />
  <path
     d="m 707.71742,377.13177 -3.90663,-2.17529 c 0,0 -1.82728,7.62537 -1.23,13.05927 a 2.707,2.707 0 0 0 2.03429,2.33847 c 8.987,2.23181 51.82047,11.74045 81.27523,-1.65234 a 2.70281,2.70281 0 0 0 1.56547,-2.172 c 0.36127,-3.33958 -0.91773,-10.23077 -1.42825,-11.57336 -1.0987,-2.88952 -78.31011,2.17525 -78.31011,2.17525 z"
     fill="#fbd56f"
     id="path9779" />
  <path
     d="m 707.71742,377.13177 -3.90663,-2.17529 c 0,0 -1.82728,7.62537 -1.23,13.05927 a 2.707,2.707 0 0 0 2.03429,2.33847 c 8.987,2.23181 51.82047,11.74045 81.27523,-1.65234 a 2.70281,2.70281 0 0 0 1.56547,-2.172 c 0.36127,-3.33958 -0.91773,-10.23077 -1.42825,-11.57336 -1.0987,-2.88952 -78.31011,2.17525 -78.31011,2.17525 z"
     opacity="0.1"
     id="path9781" />
  <ellipse
     cx="744.91919"
     cy="374.95651"
     rx="41.108391"
     ry="9.2663803"
     fill="#fbd56f"
     id="ellipse9783" />
  <path
     d="m 715.41418,354.01178 -3.90663,-2.17528 c 0,0 -1.82728,7.62536 -1.23,13.05926 a 2.707,2.707 0 0 0 2.03429,2.33847 c 8.987,2.23181 51.82048,11.74046 81.27523,-1.65234 a 2.70279,2.70279 0 0 0 1.56547,-2.172 c 0.36127,-3.33958 -0.91772,-10.23077 -1.42825,-11.57335 -1.0987,-2.88952 -78.31011,2.17524 -78.31011,2.17524 z"
     fill="#fbd56f"
     id="path9785" />
  <path
     d="m 715.41418,354.01178 -3.90663,-2.17528 c 0,0 -1.82728,7.62536 -1.23,13.05926 a 2.707,2.707 0 0 0 2.03429,2.33847 c 8.987,2.23181 51.82048,11.74046 81.27523,-1.65234 a 2.70279,2.70279 0 0 0 1.56547,-2.172 c 0.36127,-3.33958 -0.91772,-10.23077 -1.42825,-11.57335 -1.0987,-2.88952 -78.31011,2.17524 -78.31011,2.17524 z"
     opacity="0.1"
     id="path9787" />
  <ellipse
     cx="752.61597"
     cy="351.83652"
     rx="41.108391"
     ry="9.2663803"
     fill="#fbd56f"
     id="ellipse9789" />
  <path
     d="m 808.5584,360.32221 c 0,0 -16.96416,7.199 -19.28063,8.99879 -2.31647,1.79979 19.28063,-8.99879 19.28063,-8.99879 z"
     opacity="0.1"
     id="path9831" />
  <ellipse
     cx="627.87866"
     cy="473.68942"
     rx="37.556911"
     ry="39.865372"
     fill="#fbd56f"
     id="ellipse9863" />
  <ellipse
     cx="627.87866"
     cy="473.68942"
     rx="37.556911"
     ry="39.865372"
     opacity="0.1"
     id="ellipse9865" />
  <ellipse
     cx="634.36029"
     cy="474.5773"
     rx="37.556911"
     ry="38.977501"
     fill="#fbd56f"
     id="ellipse9867" />
  <ellipse
     cx="90.142776"
     cy="487.75565"
     rx="46.385689"
     ry="7.8414698"
     fill="#ff151d"
     id="ellipse9869" />
  <path
     d="m 109.323,474.92701 c 1.9865,-1.84587 3.85,-4.02343 4.42238,-6.67409 0.57238,-2.65066 -0.55733,-5.82918 -3.09023,-6.79772 -2.83814,-1.08534 -5.87095,0.882 -8.17033,2.86845 -2.29938,1.98645 -4.93467,4.254 -7.944,3.83335 a 12.09383,12.09383 0 0 0 3.74017,-11.319 4.72823,4.72823 0 0 0 -1.04018,-2.29856 c -1.57548,-1.68433 -4.43155,-0.961 -6.318,0.36591 -5.99917,4.21978 -7.67313,12.36876 -7.70577,19.70332 -0.605,-2.64562 -0.0954,-5.40251 -0.11036,-8.11641 -0.0149,-2.7139 -0.75865,-5.72232 -3.048,-7.17991 a 9.182,9.182 0 0 0 -4.64878,-1.09267 c -2.69672,-0.0992 -5.7002,0.17116 -7.54186,2.14353 -2.28826,2.45069 -1.69479,6.56252 0.29593,9.26048 1.99072,2.69796 5.01878,4.38843 7.806,6.252 a 17.30858,17.30858 0 0 1 5.57844,5.32076 5.26669,5.26669 0 0 1 0.41355,0.95058 H 98.868 a 47.11021,47.11021 0 0 0 10.455,-7.22002 z"
     fill="#ff151d"
     id="path9871" />
  <path
     d="m 509.62131,436.62281 a 40.43626,40.43626 0 0 1 5.02749,9.18054 c 0.33594,0.84417 0.66474,1.73114 0.97583,2.66168 4.99732,14.93518 -2.92108,32.845 -5.18487,30.91315 -2.26379,-1.93185 -9.31824,-5.5163 -10.68228,-0.47931 -1.36404,5.03699 -6.40284,10.1853 -6.40284,10.1853 -9.18017,9.23346 -17.48977,-0.7428 -22.94418,-11.05048 a 99.84636,99.84636 0 0 1 -4.74548,-10.48523 c -1.211,-3.16558 -1.90656,-5.35339 -1.90656,-5.35339 l 38.23682,-32.57873 c 0,0 3.6965,1.69708 7.62607,7.00647 z"
     fill="#ff151d"
     id="path9873" />
  <path
     d="m 449.3573,457.45484 a 40.43668,40.43668 0 0 1 5.0275,9.18054 c 0.33593,0.84418 0.66473,1.73114 0.97583,2.66168 4.99731,14.93518 -2.92109,32.845 -5.18485,30.91315 -2.26376,-1.93185 -9.31824,-5.5163 -10.68228,-0.47931 -1.36404,5.03699 -6.40283,10.1853 -6.40283,10.1853 -9.18018,9.23346 -17.48978,-0.7428 -22.94419,-11.05047 A 99.84934,99.84934 0 0 1 405.401,488.38054 c -1.211,-3.16559 -1.90655,-5.3534 -1.90655,-5.3534 l 38.23681,-32.57873 c 0,0 3.69647,1.69698 7.62604,7.00643 z"
     fill="#ff151d"
     id="path9875" />
  <path
     d="m 328.35394,486.23444 a 40.43562,40.43562 0 0 1 -1.98837,10.27637 c -0.28012,0.86431 -0.59305,1.757 -0.94739,2.672 -5.68417,14.6875 -23.21017,23.42243 -23.72018,20.49042 -0.51001,-2.93201 -3.65347,-10.19366 -7.91815,-7.18634 -4.26468,3.00732 -11.42957,3.75519 -11.42957,3.75519 -12.96033,1.25 -12.991,-11.73371 -10.61188,-23.15033 a 99.84576,99.84576 0 0 1 3.03812,-11.10083 c 1.08792,-3.2099 1.94867,-5.3382 1.94867,-5.3382 l 50.22916,-0.67926 c 0,0 1.76272,3.66558 1.39959,10.26098 z"
     fill="#ff151d"
     id="path9877" />
  <path
     d="m 263.45518,469.86646 a 40.4359,40.4359 0 0 1 -1.98837,10.27636 c -0.2801,0.86432 -0.593,1.757 -0.9474,2.672 -5.68416,14.6875 -23.21022,23.42243 -23.72022,20.49042 -0.51,-2.93201 -3.65347,-10.19367 -7.91816,-7.18634 -4.26469,3.00733 -11.42957,3.75519 -11.42957,3.75519 -12.96033,1.25 -12.991,-11.73371 -10.61189,-23.15033 a 99.84793,99.84793 0 0 1 3.03812,-11.10083 c 1.08793,-3.2099 1.94866,-5.3382 1.94866,-5.3382 l 50.22915,-0.67926 c 0,0 1.76281,3.66553 1.39968,10.26099 z"
     fill="#ff151d"
     id="path9879" />
  <path
     d="m 509.62131,436.62281 a 40.43626,40.43626 0 0 1 5.02749,9.18054 c 0.33594,0.84417 0.66474,1.73114 0.97583,2.66168 4.99732,14.93518 -2.92108,32.845 -5.18487,30.91315 -2.26379,-1.93185 -9.31824,-5.5163 -10.68228,-0.47931 -1.36404,5.03699 -6.40284,10.1853 -6.40284,10.1853 -9.18017,9.23346 -17.48977,-0.7428 -22.94418,-11.05048 a 99.84636,99.84636 0 0 1 -4.74548,-10.48523 c -1.211,-3.16558 -1.90656,-5.35339 -1.90656,-5.35339 l 38.23682,-32.57873 c 0,0 3.6965,1.69708 7.62607,7.00647 z"
     opacity="0.2"
     style="isolation:isolate"
     id="path9881" />
  <path
     d="m 449.3573,457.45484 a 40.43668,40.43668 0 0 1 5.0275,9.18054 c 0.33593,0.84418 0.66473,1.73114 0.97583,2.66168 4.99731,14.93518 -2.92109,32.845 -5.18485,30.91315 -2.26376,-1.93185 -9.31824,-5.5163 -10.68228,-0.47931 -1.36404,5.03699 -6.40283,10.1853 -6.40283,10.1853 -9.18018,9.23346 -17.48978,-0.7428 -22.94419,-11.05047 A 99.84934,99.84934 0 0 1 405.401,488.38054 c -1.211,-3.16559 -1.90655,-5.3534 -1.90655,-5.3534 l 38.23681,-32.57873 c 0,0 3.69647,1.69698 7.62604,7.00643 z"
     opacity="0.2"
     style="isolation:isolate"
     id="path9883" />
  <path
     d="m 328.35394,486.23444 a 40.43562,40.43562 0 0 1 -1.98837,10.27637 c -0.28012,0.86431 -0.59305,1.757 -0.94739,2.672 -5.68417,14.6875 -23.21017,23.42243 -23.72018,20.49042 -0.51001,-2.93201 -3.65347,-10.19366 -7.91815,-7.18634 -4.26468,3.00732 -11.42957,3.75519 -11.42957,3.75519 -12.96033,1.25 -12.991,-11.73371 -10.61188,-23.15033 a 99.84576,99.84576 0 0 1 3.03812,-11.10083 c 1.08792,-3.2099 1.94867,-5.3382 1.94867,-5.3382 l 50.22916,-0.67926 c 0,0 1.76272,3.66558 1.39959,10.26098 z"
     opacity="0.2"
     style="isolation:isolate"
     id="path9885" />
  <path
     d="m 263.45518,469.86646 a 40.4359,40.4359 0 0 1 -1.98837,10.27636 c -0.2801,0.86432 -0.593,1.757 -0.9474,2.672 -5.68416,14.6875 -23.21022,23.42243 -23.72022,20.49042 -0.51,-2.93201 -3.65347,-10.19367 -7.91816,-7.18634 -4.26469,3.00733 -11.42957,3.75519 -11.42957,3.75519 -12.96033,1.25 -12.991,-11.73371 -10.61189,-23.15033 a 99.84793,99.84793 0 0 1 3.03812,-11.10083 c 1.08793,-3.2099 1.94866,-5.3382 1.94866,-5.3382 l 50.22915,-0.67926 c 0,0 1.76281,3.66553 1.39968,10.26099 z"
     opacity="0.2"
     style="isolation:isolate"
     id="path9887" />
  <path
     d="m 611.616,249.73267 c 0,134.15881 -45.384,242.91608 -254.82007,242.91608 -140.73325,0 -249.61209,-34.968 -254.82008,-242.91608 -3.359,-134.11682 114.08677,-242.9161054 254.82,-242.9161054 140.73323,0 254.82015,108.7572254 254.82015,242.9161054 z"
     fill="#ff151d"
     id="path9889" />
  <path
     d="m 308.99387,11.057345 h 0.0298 a 0.05793,0.05793 0 0 1 -0.0223,0.007 z"
     opacity="0.2"
     style="isolation:isolate"
     id="path9891" />
  <path
     d="m 309.4924,10.975545 c 0.64728,-0.10413 1.92694,-0.28272 3.78693,-0.42411 l -4.14411,0.49106 q 0.0893,-0.0223 0.22318,-0.0446 c 0.0447,-0.007 0.0819,-0.0149 0.134,-0.0223 z"
     opacity="0.2"
     style="isolation:isolate"
     id="path9893" />
  <path
     d="m 497.78394,110.23254 -18.6,6.696 A 415.47072,415.47072 0 0 0 448.62785,80.502275 298.49667,298.49667 0 0 0 409.93244,45.839345 c -47.62347,-35.29538 -84.45892,-36.1956204 -96.62335,-35.288 l 27.95954,-3.2884504 a 227.31886,227.31886 0 0 1 75.06219,27.1337004 247.97733,247.97733 0 0 1 45.10873,33.32376 c 24.34368,22.59536 36.34439,42.512185 36.34439,42.512185 z"
     opacity="0.2"
     style="isolation:isolate"
     id="path9895" />
  <path
     d="m 329.63989,122.88059 c 0,0 -24.552,-81.839995 -3.72,-104.159995 0,0 32.736,-11.1600004 57.288,52.08 z"
     opacity="0.2"
     style="isolation:isolate"
     id="path9897" />
  <path
     d="m 453.96191,46.442175 c 0,0 65.10956,-55.3293104 93.91315,-45.2047104 0,0 23.3584,25.5064404 -24.71442,73.3719504 z"
     fill="#ff151d"
     id="path9899" />
  <path
     d="m 453.96191,46.442175 c 0,0 65.10956,-55.3293104 93.91315,-45.2047104 0,0 23.3584,25.5064404 -24.71442,73.3719504 z"
     opacity="0.2"
     style="isolation:isolate"
     id="path9901" />
  <path
     d="m 657,311.48468 c 0,72.113 -51.74841,129.084 -100.44,129.084 -48.69159,0 -75.888,-56.97107 -75.888,-129.084 0,-72.11293 39.554,-127.75406 88.164,-130.57205 C 645.84,176.44861 657,239.37171 657,311.48468 Z"
     fill="#ff151d"
     id="path9903" />
  <path
     d="m 657,311.48468 c 0,72.113 -51.74841,129.084 -100.44,129.084 -48.69159,0 -75.888,-56.97107 -75.888,-129.084 0,-72.11293 39.554,-127.75406 88.164,-130.57205 C 645.84,176.44861 657,239.37171 657,311.48468 Z"
     opacity="0.2"
     style="isolation:isolate"
     id="path9905" />
  <ellipse
     cx="553.58392"
     cy="322.27267"
     rx="16.36801"
     ry="20.832029"
     fill="#ff151d"
     id="ellipse9907" />
  <ellipse
     cx="611.61597"
     cy="304.41672"
     rx="16.367979"
     ry="20.832029"
     fill="#ff151d"
     id="ellipse9909" />
  <path
     d="m 464.61646,54.283755 a 29.70279,29.70279 0 0 1 -3.17692,13.43665 28.55141,28.55141 0 0 1 -12.8117,12.78192 298.49667,298.49667 0 0 0 -38.69541,-34.66293 29.161,29.161 0 0 1 6.39838,-11.44272 27.42912,27.42912 0 0 1 20.34094,-9.114 c 15.43061,-10e-6 27.94471,12.98274 27.94471,29.00108 z"
     fill="#fad46f"
     id="path9911" />
</svg>
