<?xml version="1.0" encoding="UTF-8" standalone="no"?>
<svg
   xmlns:dc="http://purl.org/dc/elements/1.1/"
   xmlns:cc="http://creativecommons.org/ns#"
   xmlns:rdf="http://www.w3.org/1999/02/22-rdf-syntax-ns#"
   xmlns:svg="http://www.w3.org/2000/svg"
   xmlns="http://www.w3.org/2000/svg"
   xmlns:sodipodi="http://sodipodi.sourceforge.net/DTD/sodipodi-0.dtd"
   xmlns:inkscape="http://www.inkscape.org/namespaces/inkscape"
   inkscape:version="1.0 (6e3e5246a0, 2020-05-07)"
   sodipodi:docname="uhoh.svg"
   version="1.1"
   viewBox="0 0 102.47679 139.39252"
   height="139.39252"
   width="102.47679"
   data-name="Layer 1"
   id="f241e7b9-92bc-4a39-8e1f-dd6f59c49ece">
  <metadata
     id="metadata9012">
    <rdf:RDF>
      <cc:Work
         rdf:about="">
        <dc:format>image/svg+xml</dc:format>
        <dc:type
           rdf:resource="http://purl.org/dc/dcmitype/StillImage" />
        <dc:title></dc:title>
      </cc:Work>
    </rdf:RDF>
  </metadata>
  <defs
     id="defs9010" />
  <sodipodi:namedview
     inkscape:current-layer="f241e7b9-92bc-4a39-8e1f-dd6f59c49ece"
     inkscape:window-maximized="1"
     inkscape:window-y="36"
     inkscape:window-x="0"
     inkscape:cy="-61.973878"
     inkscape:cx="-241.02232"
     inkscape:zoom="1.2947863"
     fit-margin-bottom="0"
     fit-margin-right="0"
     fit-margin-left="0"
     fit-margin-top="0"
     showgrid="false"
     id="namedview9008"
     inkscape:window-height="975"
     inkscape:window-width="1920"
     inkscape:pageshadow="2"
     inkscape:pageopacity="0"
     guidetolerance="10"
     gridtolerance="10"
     objecttolerance="10"
     borderopacity="1"
     bordercolor="#666666"
     pagecolor="#ffffff" />
  <path
     id="path8884"
     fill="#cccccc"
     d="m 11.204835,42.262761 a 1.07171,1.07171 0 0 0 -1.03315,0.79175 l -1.7285999,6.42045 a 1.07,1.07 0 0 0 1.03316,1.34839 H 42.350185 a 1.06983,1.06983 0 0 0 1.01085,-1.42015 l -2.22235,-6.42044 a 1.07064,1.07064 0 0 0 -1.01121,-0.72 z" />
  <ellipse
     id="ellipse8973"
     fill="#2f2e41"
     transform="rotate(-20.91783)"
     ry="21.533689"
     rx="6.7600698"
     cy="36.630455"
     cx="-0.87567765" />
  <circle
     id="circle8975"
     fill="#2f2e41"
     transform="rotate(-9.21747)"
     r="43.067329"
     cy="81.967514"
     cx="30.329224" />
  <polygon
     transform="translate(-680.34248,-338.08121)"
     id="polygon8977"
     fill="#2f2e41"
     points="743.035,447.932 729.952,447.932 732.512,476.005 743.058,473.14 " />
  <polygon
     transform="translate(-680.34248,-338.08121)"
     id="polygon8979"
     fill="#2f2e41"
     points="714.512,448.005 701.428,448.005 703.988,476.078 714.058,473.14 " />
  <ellipse
     id="ellipse8981"
     fill="#2f2e41"
     transform="rotate(-4.18164)"
     ry="4.0886798"
     rx="10.90314"
     cy="136.55327"
     cx="13.053049" />
  <circle
     id="circle8983"
     fill="#ffffff"
     r="14.71922"
     cy="65.147766"
     cx="41.977047" />
  <circle
     id="circle8985"
     fill="#3f3d56"
     r="4.9064202"
     cy="65.147766"
     cx="41.977047" />
  <ellipse
     id="ellipse8987"
     fill="#2f2e41"
     transform="rotate(-53.5499)"
     ry="6.7600698"
     rx="21.53368"
     cy="98.61763"
     cx="15.569199" />
  <path
     id="path8989"
     fill="#ffffff"
     d="m 22.054495,98.257451 c 0,-3.474 8.945,-10.334 18.8708,-10.334 9.9258,0 19.23228,9.7805 19.23228,13.254479 0,3.47398 -9.30655,-0.674 -19.23228,-0.674 -9.92573,0 -18.8708,1.22754 -18.8708,-2.246479 z" />
  <path
     id="path9003"
     fill="#f2f2f2"
     d="M 84.844065,35.999471 C 88.321545,20.425681 77.205395,4.6890112 60.015455,0.85063124 42.825515,-2.9877488 26.071245,6.5257112 22.593765,22.099501 c -3.47748,15.57379 7.91492,21.31766 25.10486,25.156 17.18994,3.83834 33.66797,4.31779 37.14544,-11.25603 z" />
  <ellipse
     id="ellipse9005"
     fill="#2f2e41"
     transform="rotate(-4.18164)"
     ry="4.0886798"
     rx="10.90314"
     cy="138.57643"
     cx="41.674206" />
</svg>
